<svg width="18" height="15" viewBox="0 0 18 15" fill="none" xmlns="http://www.w3.org/2000/svg">
<path fill-rule="evenodd" clip-rule="evenodd" d="M18 13.0998C18 13.6417 17.4801 14.081 16.8387 14.081L1.16129 14.081C0.519928 14.081 -6.78526e-08 13.6417 -4.37114e-08 13.0998C-1.95703e-08 12.5578 0.519928 12.1185 1.16129 12.1185L16.8387 12.1185C17.4801 12.1185 18 12.5578 18 13.0998Z" fill="#343C6A"/>
<path fill-rule="evenodd" clip-rule="evenodd" d="M18 7.21232C18 7.75425 17.5523 8.19357 17 8.19357L1 8.19357C0.447716 8.19357 -6.78525e-08 7.75425 -4.37114e-08 7.21232C-1.95703e-08 6.6704 0.447716 6.23108 1 6.23108L17 6.23108C17.5523 6.23108 18 6.6704 18 7.21232Z" fill="#343C6A"/>
<path fill-rule="evenodd" clip-rule="evenodd" d="M18 1.32484C18 1.86677 17.4801 2.30608 16.8387 2.30608L1.16129 2.30609C0.519928 2.30609 -6.78526e-08 1.86677 -4.37115e-08 1.32484C-1.95704e-08 0.782919 0.519928 0.343601 1.16129 0.343601L16.8387 0.343597C17.4801 0.343597 18 0.782915 18 1.32484Z" fill="#343C6A"/>
</svg>
