<svg width="20" height="19" viewBox="0 0 20 19" fill="none" xmlns="http://www.w3.org/2000/svg">
<g clip-path="url(#clip0_1_216)">
<path d="M18.8532 5.23837L17.1834 6.90819C17.0132 7.07843 16.7379 7.07843 16.5676 6.90819L12.547 2.88759C12.3768 2.71735 12.3768 2.44207 12.547 2.27183L14.2168 0.60201C14.8942 -0.0753342 15.9953 -0.0753342 16.6763 0.60201L18.8532 2.77893C19.5342 3.45627 19.5342 4.55741 18.8532 5.23837ZM11.1127 3.7062L1.60086 13.218L0.832966 17.6189C0.727924 18.2129 1.24589 18.7273 1.83993 18.6259L6.24085 17.8544L15.7526 8.34257C15.9229 8.17232 15.9229 7.89704 15.7526 7.7268L11.732 3.7062C11.5582 3.53596 11.2829 3.53596 11.1127 3.7062ZM5.31358 12.403C5.11436 12.2038 5.11436 11.885 5.31358 11.6858L10.8917 6.10769C11.0909 5.90847 11.4097 5.90847 11.6089 6.10769C11.8081 6.30691 11.8081 6.62566 11.6089 6.82488L6.03076 12.403C5.83155 12.6022 5.5128 12.6022 5.31358 12.403ZM4.00598 15.4492H5.74461V16.7641L3.40832 17.1734L2.28183 16.0469L2.69113 13.7106H4.00598V15.4492Z" fill="white"/>
</g>
<defs>
<clipPath id="clip0_1_216">
<rect width="18.5455" height="18.5455" fill="white" transform="translate(0.818237 0.0906906)"/>
</clipPath>
</defs>
</svg>
